<mxfile host="app.diagrams.net" modified="2024-07-22T06:48:45.752Z" agent="Mozilla/5.0 (Windows NT 10.0; Win64; x64) AppleWebKit/537.36 (KHTML, like Gecko) Chrome/123.0.0.0 Safari/537.36 OPR/109.0.0.0" etag="dFaWYQ-kwIbvGlGjt0hc" version="24.7.1" type="device">
  <diagram name="Página-1" id="g9yKS4x87hFlvZbshEjX">
    <mxGraphModel dx="1373" dy="3102" grid="1" gridSize="10" guides="1" tooltips="1" connect="1" arrows="1" fold="1" page="1" pageScale="1" pageWidth="827" pageHeight="1169" math="0" shadow="0">
      <root>
        <mxCell id="0" />
        <mxCell id="1" parent="0" />
        <mxCell id="mpfc_lxuUzAu9I0zO1ub-94" value="Cliente" style="swimlane;fontStyle=1;align=center;verticalAlign=top;childLayout=stackLayout;horizontal=1;startSize=26;horizontalStack=0;resizeParent=1;resizeParentMax=0;resizeLast=0;collapsible=1;marginBottom=0;whiteSpace=wrap;html=1;fillColor=#dae8fc;strokeColor=#6c8ebf;" parent="1" vertex="1">
          <mxGeometry x="80" y="280" width="160" height="240" as="geometry">
            <mxRectangle x="90" y="70" width="100" height="30" as="alternateBounds" />
          </mxGeometry>
        </mxCell>
        <mxCell id="mpfc_lxuUzAu9I0zO1ub-95" value="Atributos:&lt;div&gt;&lt;br&gt;&lt;/div&gt;" style="text;strokeColor=#6c8ebf;fillColor=#dae8fc;align=center;verticalAlign=top;spacingLeft=4;spacingRight=4;overflow=hidden;rotatable=0;points=[[0,0.5],[1,0.5]];portConstraint=eastwest;whiteSpace=wrap;html=1;" parent="mpfc_lxuUzAu9I0zO1ub-94" vertex="1">
          <mxGeometry y="26" width="160" height="94" as="geometry" />
        </mxCell>
        <mxCell id="mpfc_lxuUzAu9I0zO1ub-96" value="" style="line;strokeWidth=1;fillColor=none;align=left;verticalAlign=middle;spacingTop=-1;spacingLeft=3;spacingRight=3;rotatable=0;labelPosition=right;points=[];portConstraint=eastwest;strokeColor=inherit;" parent="mpfc_lxuUzAu9I0zO1ub-94" vertex="1">
          <mxGeometry y="120" width="160" as="geometry" />
        </mxCell>
        <mxCell id="mpfc_lxuUzAu9I0zO1ub-97" value="Método:" style="text;strokeColor=#6c8ebf;fillColor=#dae8fc;align=center;verticalAlign=top;spacingLeft=4;spacingRight=4;overflow=hidden;rotatable=0;points=[[0,0.5],[1,0.5]];portConstraint=eastwest;whiteSpace=wrap;html=1;" parent="mpfc_lxuUzAu9I0zO1ub-94" vertex="1">
          <mxGeometry y="120" width="160" height="120" as="geometry" />
        </mxCell>
        <mxCell id="mpfc_lxuUzAu9I0zO1ub-100" value="Fornecedor" style="swimlane;fontStyle=1;align=center;verticalAlign=top;childLayout=stackLayout;horizontal=1;startSize=26;horizontalStack=0;resizeParent=1;resizeParentMax=0;resizeLast=0;collapsible=1;marginBottom=0;whiteSpace=wrap;html=1;fillColor=#dae8fc;strokeColor=#6c8ebf;" parent="1" vertex="1">
          <mxGeometry x="320" y="280" width="160" height="240" as="geometry">
            <mxRectangle x="90" y="70" width="100" height="30" as="alternateBounds" />
          </mxGeometry>
        </mxCell>
        <mxCell id="mpfc_lxuUzAu9I0zO1ub-101" value="Atributos:&lt;div&gt;&lt;br&gt;&lt;/div&gt;" style="text;strokeColor=#6c8ebf;fillColor=#dae8fc;align=center;verticalAlign=top;spacingLeft=4;spacingRight=4;overflow=hidden;rotatable=0;points=[[0,0.5],[1,0.5]];portConstraint=eastwest;whiteSpace=wrap;html=1;" parent="mpfc_lxuUzAu9I0zO1ub-100" vertex="1">
          <mxGeometry y="26" width="160" height="94" as="geometry" />
        </mxCell>
        <mxCell id="mpfc_lxuUzAu9I0zO1ub-102" value="" style="line;strokeWidth=1;fillColor=none;align=left;verticalAlign=middle;spacingTop=-1;spacingLeft=3;spacingRight=3;rotatable=0;labelPosition=right;points=[];portConstraint=eastwest;strokeColor=inherit;" parent="mpfc_lxuUzAu9I0zO1ub-100" vertex="1">
          <mxGeometry y="120" width="160" as="geometry" />
        </mxCell>
        <mxCell id="mpfc_lxuUzAu9I0zO1ub-103" value="Método:" style="text;strokeColor=#6c8ebf;fillColor=#dae8fc;align=center;verticalAlign=top;spacingLeft=4;spacingRight=4;overflow=hidden;rotatable=0;points=[[0,0.5],[1,0.5]];portConstraint=eastwest;whiteSpace=wrap;html=1;" parent="mpfc_lxuUzAu9I0zO1ub-100" vertex="1">
          <mxGeometry y="120" width="160" height="120" as="geometry" />
        </mxCell>
        <mxCell id="mpfc_lxuUzAu9I0zO1ub-120" value="Produto" style="swimlane;fontStyle=1;align=center;verticalAlign=top;childLayout=stackLayout;horizontal=1;startSize=26;horizontalStack=0;resizeParent=1;resizeParentMax=0;resizeLast=0;collapsible=1;marginBottom=0;whiteSpace=wrap;html=1;fillColor=#dae8fc;strokeColor=#6c8ebf;" parent="1" vertex="1">
          <mxGeometry x="80" y="680" width="160" height="240" as="geometry">
            <mxRectangle x="90" y="70" width="100" height="30" as="alternateBounds" />
          </mxGeometry>
        </mxCell>
        <mxCell id="mpfc_lxuUzAu9I0zO1ub-121" value="Atributos:&lt;div&gt;&lt;br&gt;&lt;/div&gt;" style="text;strokeColor=#6c8ebf;fillColor=#dae8fc;align=center;verticalAlign=top;spacingLeft=4;spacingRight=4;overflow=hidden;rotatable=0;points=[[0,0.5],[1,0.5]];portConstraint=eastwest;whiteSpace=wrap;html=1;" parent="mpfc_lxuUzAu9I0zO1ub-120" vertex="1">
          <mxGeometry y="26" width="160" height="94" as="geometry" />
        </mxCell>
        <mxCell id="mpfc_lxuUzAu9I0zO1ub-122" value="" style="line;strokeWidth=1;fillColor=none;align=left;verticalAlign=middle;spacingTop=-1;spacingLeft=3;spacingRight=3;rotatable=0;labelPosition=right;points=[];portConstraint=eastwest;strokeColor=inherit;" parent="mpfc_lxuUzAu9I0zO1ub-120" vertex="1">
          <mxGeometry y="120" width="160" as="geometry" />
        </mxCell>
        <mxCell id="mpfc_lxuUzAu9I0zO1ub-123" value="Método:" style="text;strokeColor=#6c8ebf;fillColor=#dae8fc;align=center;verticalAlign=top;spacingLeft=4;spacingRight=4;overflow=hidden;rotatable=0;points=[[0,0.5],[1,0.5]];portConstraint=eastwest;whiteSpace=wrap;html=1;" parent="mpfc_lxuUzAu9I0zO1ub-120" vertex="1">
          <mxGeometry y="120" width="160" height="120" as="geometry" />
        </mxCell>
        <mxCell id="mpfc_lxuUzAu9I0zO1ub-124" value="Pedido" style="swimlane;fontStyle=1;align=center;verticalAlign=top;childLayout=stackLayout;horizontal=1;startSize=26;horizontalStack=0;resizeParent=1;resizeParentMax=0;resizeLast=0;collapsible=1;marginBottom=0;whiteSpace=wrap;html=1;fillColor=#dae8fc;strokeColor=#6c8ebf;" parent="1" vertex="1">
          <mxGeometry x="320" y="680" width="160" height="240" as="geometry">
            <mxRectangle x="90" y="70" width="100" height="30" as="alternateBounds" />
          </mxGeometry>
        </mxCell>
        <mxCell id="mpfc_lxuUzAu9I0zO1ub-125" value="Atributos:&lt;div&gt;&lt;br&gt;&lt;/div&gt;" style="text;strokeColor=#6c8ebf;fillColor=#dae8fc;align=center;verticalAlign=top;spacingLeft=4;spacingRight=4;overflow=hidden;rotatable=0;points=[[0,0.5],[1,0.5]];portConstraint=eastwest;whiteSpace=wrap;html=1;" parent="mpfc_lxuUzAu9I0zO1ub-124" vertex="1">
          <mxGeometry y="26" width="160" height="94" as="geometry" />
        </mxCell>
        <mxCell id="mpfc_lxuUzAu9I0zO1ub-126" value="" style="line;strokeWidth=1;fillColor=none;align=left;verticalAlign=middle;spacingTop=-1;spacingLeft=3;spacingRight=3;rotatable=0;labelPosition=right;points=[];portConstraint=eastwest;strokeColor=inherit;" parent="mpfc_lxuUzAu9I0zO1ub-124" vertex="1">
          <mxGeometry y="120" width="160" as="geometry" />
        </mxCell>
        <mxCell id="mpfc_lxuUzAu9I0zO1ub-127" value="Método:" style="text;strokeColor=#6c8ebf;fillColor=#dae8fc;align=center;verticalAlign=top;spacingLeft=4;spacingRight=4;overflow=hidden;rotatable=0;points=[[0,0.5],[1,0.5]];portConstraint=eastwest;whiteSpace=wrap;html=1;" parent="mpfc_lxuUzAu9I0zO1ub-124" vertex="1">
          <mxGeometry y="120" width="160" height="120" as="geometry" />
        </mxCell>
        <mxCell id="mpfc_lxuUzAu9I0zO1ub-128" value="Envio" style="swimlane;fontStyle=1;align=center;verticalAlign=top;childLayout=stackLayout;horizontal=1;startSize=26;horizontalStack=0;resizeParent=1;resizeParentMax=0;resizeLast=0;collapsible=1;marginBottom=0;whiteSpace=wrap;html=1;fillColor=#dae8fc;strokeColor=#6c8ebf;" parent="1" vertex="1">
          <mxGeometry x="560" y="680" width="160" height="240" as="geometry">
            <mxRectangle x="90" y="70" width="100" height="30" as="alternateBounds" />
          </mxGeometry>
        </mxCell>
        <mxCell id="mpfc_lxuUzAu9I0zO1ub-129" value="Atributos:&lt;div&gt;&lt;br&gt;&lt;/div&gt;" style="text;strokeColor=#6c8ebf;fillColor=#dae8fc;align=center;verticalAlign=top;spacingLeft=4;spacingRight=4;overflow=hidden;rotatable=0;points=[[0,0.5],[1,0.5]];portConstraint=eastwest;whiteSpace=wrap;html=1;" parent="mpfc_lxuUzAu9I0zO1ub-128" vertex="1">
          <mxGeometry y="26" width="160" height="94" as="geometry" />
        </mxCell>
        <mxCell id="mpfc_lxuUzAu9I0zO1ub-130" value="" style="line;strokeWidth=1;fillColor=none;align=left;verticalAlign=middle;spacingTop=-1;spacingLeft=3;spacingRight=3;rotatable=0;labelPosition=right;points=[];portConstraint=eastwest;strokeColor=inherit;" parent="mpfc_lxuUzAu9I0zO1ub-128" vertex="1">
          <mxGeometry y="120" width="160" as="geometry" />
        </mxCell>
        <mxCell id="mpfc_lxuUzAu9I0zO1ub-131" value="Método:" style="text;strokeColor=#6c8ebf;fillColor=#dae8fc;align=center;verticalAlign=top;spacingLeft=4;spacingRight=4;overflow=hidden;rotatable=0;points=[[0,0.5],[1,0.5]];portConstraint=eastwest;whiteSpace=wrap;html=1;" parent="mpfc_lxuUzAu9I0zO1ub-128" vertex="1">
          <mxGeometry y="120" width="160" height="120" as="geometry" />
        </mxCell>
        <mxCell id="mpfc_lxuUzAu9I0zO1ub-132" value="Compra" style="swimlane;fontStyle=1;align=center;verticalAlign=top;childLayout=stackLayout;horizontal=1;startSize=26;horizontalStack=0;resizeParent=1;resizeParentMax=0;resizeLast=0;collapsible=1;marginBottom=0;whiteSpace=wrap;html=1;fillColor=#dae8fc;strokeColor=#6c8ebf;" parent="1" vertex="1">
          <mxGeometry x="80" y="1080" width="160" height="240" as="geometry">
            <mxRectangle x="90" y="70" width="100" height="30" as="alternateBounds" />
          </mxGeometry>
        </mxCell>
        <mxCell id="mpfc_lxuUzAu9I0zO1ub-133" value="Atributos:&lt;div&gt;&lt;br&gt;&lt;/div&gt;" style="text;strokeColor=#6c8ebf;fillColor=#dae8fc;align=center;verticalAlign=top;spacingLeft=4;spacingRight=4;overflow=hidden;rotatable=0;points=[[0,0.5],[1,0.5]];portConstraint=eastwest;whiteSpace=wrap;html=1;" parent="mpfc_lxuUzAu9I0zO1ub-132" vertex="1">
          <mxGeometry y="26" width="160" height="94" as="geometry" />
        </mxCell>
        <mxCell id="mpfc_lxuUzAu9I0zO1ub-134" value="" style="line;strokeWidth=1;fillColor=none;align=left;verticalAlign=middle;spacingTop=-1;spacingLeft=3;spacingRight=3;rotatable=0;labelPosition=right;points=[];portConstraint=eastwest;strokeColor=inherit;" parent="mpfc_lxuUzAu9I0zO1ub-132" vertex="1">
          <mxGeometry y="120" width="160" as="geometry" />
        </mxCell>
        <mxCell id="mpfc_lxuUzAu9I0zO1ub-135" value="Método:" style="text;strokeColor=#6c8ebf;fillColor=#dae8fc;align=center;verticalAlign=top;spacingLeft=4;spacingRight=4;overflow=hidden;rotatable=0;points=[[0,0.5],[1,0.5]];portConstraint=eastwest;whiteSpace=wrap;html=1;" parent="mpfc_lxuUzAu9I0zO1ub-132" vertex="1">
          <mxGeometry y="120" width="160" height="120" as="geometry" />
        </mxCell>
        <mxCell id="mpfc_lxuUzAu9I0zO1ub-136" value="Vendas" style="swimlane;fontStyle=1;align=center;verticalAlign=top;childLayout=stackLayout;horizontal=1;startSize=26;horizontalStack=0;resizeParent=1;resizeParentMax=0;resizeLast=0;collapsible=1;marginBottom=0;whiteSpace=wrap;html=1;fillColor=#dae8fc;strokeColor=#6c8ebf;" parent="1" vertex="1">
          <mxGeometry x="320" y="1080" width="160" height="240" as="geometry">
            <mxRectangle x="90" y="70" width="100" height="30" as="alternateBounds" />
          </mxGeometry>
        </mxCell>
        <mxCell id="mpfc_lxuUzAu9I0zO1ub-137" value="Atributos:&lt;div&gt;&lt;br&gt;&lt;/div&gt;" style="text;strokeColor=#6c8ebf;fillColor=#dae8fc;align=center;verticalAlign=top;spacingLeft=4;spacingRight=4;overflow=hidden;rotatable=0;points=[[0,0.5],[1,0.5]];portConstraint=eastwest;whiteSpace=wrap;html=1;" parent="mpfc_lxuUzAu9I0zO1ub-136" vertex="1">
          <mxGeometry y="26" width="160" height="94" as="geometry" />
        </mxCell>
        <mxCell id="mpfc_lxuUzAu9I0zO1ub-138" value="" style="line;strokeWidth=1;fillColor=none;align=left;verticalAlign=middle;spacingTop=-1;spacingLeft=3;spacingRight=3;rotatable=0;labelPosition=right;points=[];portConstraint=eastwest;strokeColor=inherit;" parent="mpfc_lxuUzAu9I0zO1ub-136" vertex="1">
          <mxGeometry y="120" width="160" as="geometry" />
        </mxCell>
        <mxCell id="mpfc_lxuUzAu9I0zO1ub-139" value="Método:" style="text;strokeColor=#6c8ebf;fillColor=#dae8fc;align=center;verticalAlign=top;spacingLeft=4;spacingRight=4;overflow=hidden;rotatable=0;points=[[0,0.5],[1,0.5]];portConstraint=eastwest;whiteSpace=wrap;html=1;" parent="mpfc_lxuUzAu9I0zO1ub-136" vertex="1">
          <mxGeometry y="120" width="160" height="120" as="geometry" />
        </mxCell>
        <mxCell id="mpfc_lxuUzAu9I0zO1ub-140" value="" style="swimlane;fontStyle=1;align=center;verticalAlign=top;childLayout=stackLayout;horizontal=1;startSize=26;horizontalStack=0;resizeParent=1;resizeParentMax=0;resizeLast=0;collapsible=1;marginBottom=0;whiteSpace=wrap;html=1;fillColor=#dae8fc;strokeColor=#6c8ebf;" parent="1" vertex="1">
          <mxGeometry x="560" y="1080" width="160" height="240" as="geometry">
            <mxRectangle x="90" y="70" width="100" height="30" as="alternateBounds" />
          </mxGeometry>
        </mxCell>
        <mxCell id="mpfc_lxuUzAu9I0zO1ub-141" value="Atributos:&lt;div&gt;&lt;br&gt;&lt;/div&gt;" style="text;strokeColor=#6c8ebf;fillColor=#dae8fc;align=center;verticalAlign=top;spacingLeft=4;spacingRight=4;overflow=hidden;rotatable=0;points=[[0,0.5],[1,0.5]];portConstraint=eastwest;whiteSpace=wrap;html=1;" parent="mpfc_lxuUzAu9I0zO1ub-140" vertex="1">
          <mxGeometry y="26" width="160" height="94" as="geometry" />
        </mxCell>
        <mxCell id="mpfc_lxuUzAu9I0zO1ub-142" value="" style="line;strokeWidth=1;fillColor=none;align=left;verticalAlign=middle;spacingTop=-1;spacingLeft=3;spacingRight=3;rotatable=0;labelPosition=right;points=[];portConstraint=eastwest;strokeColor=inherit;" parent="mpfc_lxuUzAu9I0zO1ub-140" vertex="1">
          <mxGeometry y="120" width="160" as="geometry" />
        </mxCell>
        <mxCell id="mpfc_lxuUzAu9I0zO1ub-143" value="Método:" style="text;strokeColor=#6c8ebf;fillColor=#dae8fc;align=center;verticalAlign=top;spacingLeft=4;spacingRight=4;overflow=hidden;rotatable=0;points=[[0,0.5],[1,0.5]];portConstraint=eastwest;whiteSpace=wrap;html=1;" parent="mpfc_lxuUzAu9I0zO1ub-140" vertex="1">
          <mxGeometry y="120" width="160" height="120" as="geometry" />
        </mxCell>
        <mxCell id="cKsGoyYIANnHtk8BpcLp-1" value="&lt;font style=&quot;font-size: 24px;&quot;&gt;+ Público&lt;/font&gt;&lt;div&gt;&lt;font style=&quot;font-size: 24px;&quot;&gt;- Privado&lt;/font&gt;&lt;/div&gt;&lt;div&gt;&lt;font style=&quot;font-size: 24px;&quot;&gt;# Protegido&lt;/font&gt;&lt;/div&gt;" style="text;html=1;align=center;verticalAlign=middle;resizable=0;points=[];autosize=1;strokeColor=none;fillColor=none;" parent="1" vertex="1">
          <mxGeometry x="80" y="560" width="150" height="100" as="geometry" />
        </mxCell>
        <mxCell id="yU9WBrjBuBma50-bDMhJ-2" value="Pessoa (classe pai)" style="swimlane;fontStyle=1;align=center;verticalAlign=top;childLayout=stackLayout;horizontal=1;startSize=26;horizontalStack=0;resizeParent=1;resizeParentMax=0;resizeLast=0;collapsible=1;marginBottom=0;whiteSpace=wrap;html=1;fillColor=#dae8fc;strokeColor=#6c8ebf;" parent="1" vertex="1">
          <mxGeometry x="80" y="-50" width="160" height="310" as="geometry">
            <mxRectangle x="90" y="70" width="100" height="30" as="alternateBounds" />
          </mxGeometry>
        </mxCell>
        <mxCell id="yU9WBrjBuBma50-bDMhJ-3" value="Atributos:&lt;div&gt;- Nome&lt;/div&gt;&lt;div&gt;-Telefone&lt;/div&gt;&lt;div&gt;- Endereço&lt;/div&gt;&lt;div&gt;- CPF&lt;/div&gt;&lt;div&gt;- Email&lt;/div&gt;&lt;div&gt;&lt;br&gt;&lt;/div&gt;" style="text;strokeColor=#6c8ebf;fillColor=#dae8fc;align=left;verticalAlign=top;spacingLeft=4;spacingRight=4;overflow=hidden;rotatable=0;points=[[0,0.5],[1,0.5]];portConstraint=eastwest;whiteSpace=wrap;html=1;" parent="yU9WBrjBuBma50-bDMhJ-2" vertex="1">
          <mxGeometry y="26" width="160" height="124" as="geometry" />
        </mxCell>
        <mxCell id="yU9WBrjBuBma50-bDMhJ-4" value="" style="line;strokeWidth=1;fillColor=none;align=left;verticalAlign=middle;spacingTop=-1;spacingLeft=3;spacingRight=3;rotatable=0;labelPosition=right;points=[];portConstraint=eastwest;strokeColor=inherit;" parent="yU9WBrjBuBma50-bDMhJ-2" vertex="1">
          <mxGeometry y="150" width="160" as="geometry" />
        </mxCell>
        <mxCell id="yU9WBrjBuBma50-bDMhJ-5" value="&lt;div&gt;&lt;span style=&quot;text-wrap: nowrap;&quot;&gt;Métodos:&lt;/span&gt;&lt;/div&gt;&lt;span style=&quot;text-wrap: nowrap;&quot;&gt;+GetNome&lt;/span&gt;&lt;div&gt;+SetNome&lt;/div&gt;&lt;div&gt;+GetTelefone&lt;/div&gt;&lt;div&gt;+SetTelefone&lt;/div&gt;&lt;div&gt;+GetCPF&lt;div style=&quot;padding: 0px; margin: 0px;&quot;&gt;+SetCPF&lt;/div&gt;&lt;div style=&quot;padding: 0px; margin: 0px;&quot;&gt;+GetEmail&lt;div style=&quot;padding: 0px; margin: 0px;&quot;&gt;+SetEmail&lt;div style=&quot;padding: 0px; margin: 0px;&quot;&gt;&lt;br style=&quot;padding: 0px; margin: 0px;&quot;&gt;&lt;/div&gt;&lt;div style=&quot;padding: 0px; margin: 0px;&quot;&gt;&lt;br style=&quot;padding: 0px; margin: 0px; text-wrap: nowrap;&quot;&gt;&lt;/div&gt;&lt;/div&gt;&lt;div style=&quot;padding: 0px; margin: 0px;&quot;&gt;&lt;br style=&quot;padding: 0px; margin: 0px;&quot;&gt;&lt;/div&gt;&lt;div style=&quot;padding: 0px; margin: 0px;&quot;&gt;&lt;br style=&quot;padding: 0px; margin: 0px; text-wrap: nowrap;&quot;&gt;&lt;/div&gt;&lt;/div&gt;&lt;div style=&quot;padding: 0px; margin: 0px;&quot;&gt;&lt;br style=&quot;padding: 0px; margin: 0px;&quot;&gt;&lt;/div&gt;&lt;div style=&quot;padding: 0px; margin: 0px;&quot;&gt;&lt;br style=&quot;padding: 0px; margin: 0px; text-wrap: nowrap;&quot;&gt;&lt;/div&gt;&lt;div style=&quot;padding: 0px; margin: 0px;&quot;&gt;&lt;br style=&quot;padding: 0px; margin: 0px;&quot;&gt;&lt;/div&gt;&lt;div style=&quot;padding: 0px; margin: 0px;&quot;&gt;&lt;br style=&quot;padding: 0px; margin: 0px; text-wrap: nowrap;&quot;&gt;&lt;/div&gt;&lt;/div&gt;" style="text;strokeColor=#6c8ebf;fillColor=#dae8fc;align=left;verticalAlign=top;spacingLeft=4;spacingRight=4;overflow=hidden;rotatable=0;points=[[0,0.5],[1,0.5]];portConstraint=eastwest;whiteSpace=wrap;html=1;" parent="yU9WBrjBuBma50-bDMhJ-2" vertex="1">
          <mxGeometry y="150" width="160" height="160" as="geometry" />
        </mxCell>
        <mxCell id="yU9WBrjBuBma50-bDMhJ-6" value="Terceiros (classe pai)" style="swimlane;fontStyle=1;align=center;verticalAlign=top;childLayout=stackLayout;horizontal=1;startSize=26;horizontalStack=0;resizeParent=1;resizeParentMax=0;resizeLast=0;collapsible=1;marginBottom=0;whiteSpace=wrap;html=1;fillColor=#dae8fc;strokeColor=#6c8ebf;" parent="1" vertex="1">
          <mxGeometry x="320" y="20" width="160" height="240" as="geometry">
            <mxRectangle x="90" y="70" width="100" height="30" as="alternateBounds" />
          </mxGeometry>
        </mxCell>
        <mxCell id="yU9WBrjBuBma50-bDMhJ-7" value="Atributos:&lt;div&gt;- Nome&lt;/div&gt;&lt;div&gt;-Telefone&lt;/div&gt;&lt;div&gt;- E-mail&lt;/div&gt;" style="text;strokeColor=#6c8ebf;fillColor=#dae8fc;align=left;verticalAlign=top;spacingLeft=4;spacingRight=4;overflow=hidden;rotatable=0;points=[[0,0.5],[1,0.5]];portConstraint=eastwest;whiteSpace=wrap;html=1;" parent="yU9WBrjBuBma50-bDMhJ-6" vertex="1">
          <mxGeometry y="26" width="160" height="94" as="geometry" />
        </mxCell>
        <mxCell id="yU9WBrjBuBma50-bDMhJ-8" value="" style="line;strokeWidth=1;fillColor=none;align=left;verticalAlign=middle;spacingTop=-1;spacingLeft=3;spacingRight=3;rotatable=0;labelPosition=right;points=[];portConstraint=eastwest;strokeColor=inherit;" parent="yU9WBrjBuBma50-bDMhJ-6" vertex="1">
          <mxGeometry y="120" width="160" as="geometry" />
        </mxCell>
        <mxCell id="yU9WBrjBuBma50-bDMhJ-9" value="Método:" style="text;strokeColor=#6c8ebf;fillColor=#dae8fc;align=center;verticalAlign=top;spacingLeft=4;spacingRight=4;overflow=hidden;rotatable=0;points=[[0,0.5],[1,0.5]];portConstraint=eastwest;whiteSpace=wrap;html=1;" parent="yU9WBrjBuBma50-bDMhJ-6" vertex="1">
          <mxGeometry y="120" width="160" height="120" as="geometry" />
        </mxCell>
        <mxCell id="yMq1paF7hZHdSIkhjtPt-1" value="+GetNome" style="text;align=left;verticalAlign=top;spacingLeft=4;spacingRight=4;overflow=hidden;rotatable=0;points=[[0,0.5],[1,0.5]];portConstraint=eastwest;" vertex="1" parent="1">
          <mxGeometry x="254" y="-1310" width="160" height="26" as="geometry" />
        </mxCell>
        <mxCell id="yMq1paF7hZHdSIkhjtPt-2" value="+SetNome&#xa;&#xa;" style="text;align=left;verticalAlign=top;spacingLeft=4;spacingRight=4;overflow=hidden;rotatable=0;points=[[0,0.5],[1,0.5]];portConstraint=eastwest;" vertex="1" parent="1">
          <mxGeometry x="254" y="-1284" width="160" height="26" as="geometry" />
        </mxCell>
        <mxCell id="yMq1paF7hZHdSIkhjtPt-3" value="+GetTelefone&#xa;&#xa;" style="text;align=left;verticalAlign=top;spacingLeft=4;spacingRight=4;overflow=hidden;rotatable=0;points=[[0,0.5],[1,0.5]];portConstraint=eastwest;" vertex="1" parent="1">
          <mxGeometry x="254" y="-1258" width="160" height="26" as="geometry" />
        </mxCell>
        <mxCell id="yMq1paF7hZHdSIkhjtPt-4" value="+SetTelefone&#xa;&#xa;" style="text;align=left;verticalAlign=top;spacingLeft=4;spacingRight=4;overflow=hidden;rotatable=0;points=[[0,0.5],[1,0.5]];portConstraint=eastwest;" vertex="1" parent="1">
          <mxGeometry x="254" y="-1232" width="160" height="26" as="geometry" />
        </mxCell>
        <mxCell id="yMq1paF7hZHdSIkhjtPt-5" value="+GetCPF&#xa;&#xa;" style="text;align=left;verticalAlign=top;spacingLeft=4;spacingRight=4;overflow=hidden;rotatable=0;points=[[0,0.5],[1,0.5]];portConstraint=eastwest;" vertex="1" parent="1">
          <mxGeometry x="254" y="-1206" width="160" height="24" as="geometry" />
        </mxCell>
        <mxCell id="yMq1paF7hZHdSIkhjtPt-6" value="+SetCPF&#xa;&#xa;" style="text;align=left;verticalAlign=top;spacingLeft=4;spacingRight=4;overflow=hidden;rotatable=0;points=[[0,0.5],[1,0.5]];portConstraint=eastwest;" vertex="1" parent="1">
          <mxGeometry x="254" y="-1182" width="160" height="24" as="geometry" />
        </mxCell>
        <mxCell id="yMq1paF7hZHdSIkhjtPt-7" value="+GetEmail&#xa;&#xa;" style="text;align=left;verticalAlign=top;spacingLeft=4;spacingRight=4;overflow=hidden;rotatable=0;points=[[0,0.5],[1,0.5]];portConstraint=eastwest;" vertex="1" parent="1">
          <mxGeometry x="254" y="-1158" width="160" height="24" as="geometry" />
        </mxCell>
        <mxCell id="yMq1paF7hZHdSIkhjtPt-8" value="+SetEmail&#xa;&#xa;" style="text;align=left;verticalAlign=top;spacingLeft=4;spacingRight=4;overflow=hidden;rotatable=0;points=[[0,0.5],[1,0.5]];portConstraint=eastwest;" vertex="1" parent="1">
          <mxGeometry x="254" y="-1134" width="160" height="24" as="geometry" />
        </mxCell>
        <mxCell id="yMq1paF7hZHdSIkhjtPt-20" value="Envio" style="swimlane;fontStyle=1;align=center;verticalAlign=top;childLayout=stackLayout;horizontal=1;startSize=26;horizontalStack=0;resizeParent=1;resizeParentMax=0;resizeLast=0;collapsible=1;marginBottom=0;whiteSpace=wrap;html=1;fillColor=#dae8fc;strokeColor=#6c8ebf;" vertex="1" parent="1">
          <mxGeometry x="580" y="20" width="160" height="240" as="geometry">
            <mxRectangle x="90" y="70" width="100" height="30" as="alternateBounds" />
          </mxGeometry>
        </mxCell>
        <mxCell id="yMq1paF7hZHdSIkhjtPt-21" value="Atributos:&lt;div&gt;&lt;span style=&quot;text-wrap: nowrap;&quot;&gt;#Matéria-prima&lt;/span&gt;&lt;/div&gt;&lt;div&gt;&lt;span style=&quot;text-wrap: nowrap; background-color: initial;&quot;&gt;#Quantidade&lt;/span&gt;&lt;/div&gt;&lt;div&gt;&lt;span style=&quot;text-wrap: nowrap; background-color: initial;&quot;&gt;&amp;nbsp;&lt;/span&gt;&lt;span style=&quot;text-wrap: nowrap; background-color: initial;&quot;&gt;#Fornecedor&lt;/span&gt;&lt;/div&gt;" style="text;strokeColor=#6c8ebf;fillColor=#dae8fc;align=left;verticalAlign=top;spacingLeft=4;spacingRight=4;overflow=hidden;rotatable=0;points=[[0,0.5],[1,0.5]];portConstraint=eastwest;whiteSpace=wrap;html=1;" vertex="1" parent="yMq1paF7hZHdSIkhjtPt-20">
          <mxGeometry y="26" width="160" height="94" as="geometry" />
        </mxCell>
        <mxCell id="yMq1paF7hZHdSIkhjtPt-22" value="" style="line;strokeWidth=1;fillColor=none;align=left;verticalAlign=middle;spacingTop=-1;spacingLeft=3;spacingRight=3;rotatable=0;labelPosition=right;points=[];portConstraint=eastwest;strokeColor=inherit;" vertex="1" parent="yMq1paF7hZHdSIkhjtPt-20">
          <mxGeometry y="120" width="160" as="geometry" />
        </mxCell>
        <mxCell id="yMq1paF7hZHdSIkhjtPt-23" value="Método:&lt;div&gt;&lt;span style=&quot;text-wrap: nowrap;&quot;&gt;+GetMatéria-prima&lt;/span&gt;&lt;br&gt;&lt;/div&gt;&lt;div&gt;+SetMatéria-prima&lt;div style=&quot;padding: 0px; margin: 0px;&quot;&gt;+GetQuantidade&lt;div style=&quot;padding: 0px; margin: 0px;&quot;&gt;+SetQuantidade&lt;div style=&quot;padding: 0px; margin: 0px;&quot;&gt;+GetFornecedor&lt;div style=&quot;padding: 0px; margin: 0px;&quot;&gt;+SetFornecedor&lt;div style=&quot;padding: 0px; margin: 0px;&quot;&gt;&lt;br style=&quot;padding: 0px; margin: 0px;&quot;&gt;&lt;/div&gt;&lt;div style=&quot;padding: 0px; margin: 0px;&quot;&gt;&lt;br style=&quot;padding: 0px; margin: 0px; text-wrap: nowrap;&quot;&gt;&lt;/div&gt;&lt;/div&gt;&lt;div style=&quot;padding: 0px; margin: 0px;&quot;&gt;&lt;br style=&quot;padding: 0px; margin: 0px; text-wrap: nowrap;&quot;&gt;&lt;/div&gt;&lt;/div&gt;&lt;div style=&quot;padding: 0px; margin: 0px;&quot;&gt;&lt;br style=&quot;padding: 0px; margin: 0px; text-wrap: nowrap;&quot;&gt;&lt;/div&gt;&lt;/div&gt;&lt;div style=&quot;padding: 0px; margin: 0px;&quot;&gt;&lt;br style=&quot;padding: 0px; margin: 0px; text-wrap: nowrap;&quot;&gt;&lt;/div&gt;&lt;/div&gt;&lt;div style=&quot;padding: 0px; margin: 0px;&quot;&gt;&lt;br style=&quot;padding: 0px; margin: 0px; text-wrap: nowrap;&quot;&gt;&lt;/div&gt;&lt;/div&gt;" style="text;strokeColor=#6c8ebf;fillColor=#dae8fc;align=left;verticalAlign=top;spacingLeft=4;spacingRight=4;overflow=hidden;rotatable=0;points=[[0,0.5],[1,0.5]];portConstraint=eastwest;whiteSpace=wrap;html=1;" vertex="1" parent="yMq1paF7hZHdSIkhjtPt-20">
          <mxGeometry y="120" width="160" height="120" as="geometry" />
        </mxCell>
        <mxCell id="yMq1paF7hZHdSIkhjtPt-24" value="Banco de Dados" style="swimlane;fontStyle=0;align=center;verticalAlign=top;childLayout=stackLayout;horizontal=1;startSize=26;horizontalStack=0;resizeParent=1;resizeLast=0;collapsible=1;marginBottom=0;rounded=0;shadow=0;strokeWidth=1;fillColor=#dae8fc;strokeColor=#6c8ebf;" vertex="1" parent="1">
          <mxGeometry x="490" y="-250" width="160" height="156" as="geometry">
            <mxRectangle x="44" y="-860" width="160" height="26" as="alternateBounds" />
          </mxGeometry>
        </mxCell>
        <mxCell id="yMq1paF7hZHdSIkhjtPt-27" value="Buscar" style="text;align=left;verticalAlign=top;spacingLeft=4;spacingRight=4;overflow=hidden;rotatable=0;points=[[0,0.5],[1,0.5]];portConstraint=eastwest;fillColor=#dae8fc;strokeColor=#6c8ebf;" vertex="1" parent="yMq1paF7hZHdSIkhjtPt-24">
          <mxGeometry y="26" width="160" height="26" as="geometry" />
        </mxCell>
        <mxCell id="yMq1paF7hZHdSIkhjtPt-28" value="Cadastrar" style="text;align=left;verticalAlign=top;spacingLeft=4;spacingRight=4;overflow=hidden;rotatable=0;points=[[0,0.5],[1,0.5]];portConstraint=eastwest;fillColor=#dae8fc;strokeColor=#6c8ebf;" vertex="1" parent="yMq1paF7hZHdSIkhjtPt-24">
          <mxGeometry y="52" width="160" height="26" as="geometry" />
        </mxCell>
        <mxCell id="yMq1paF7hZHdSIkhjtPt-29" value="Excluir" style="text;align=left;verticalAlign=top;spacingLeft=4;spacingRight=4;overflow=hidden;rotatable=0;points=[[0,0.5],[1,0.5]];portConstraint=eastwest;fillColor=#dae8fc;strokeColor=#6c8ebf;" vertex="1" parent="yMq1paF7hZHdSIkhjtPt-24">
          <mxGeometry y="78" width="160" height="26" as="geometry" />
        </mxCell>
        <mxCell id="yMq1paF7hZHdSIkhjtPt-32" value="Cadastrar" style="text;align=left;verticalAlign=top;spacingLeft=4;spacingRight=4;overflow=hidden;rotatable=0;points=[[0,0.5],[1,0.5]];portConstraint=eastwest;fillColor=#dae8fc;strokeColor=#6c8ebf;" vertex="1" parent="yMq1paF7hZHdSIkhjtPt-24">
          <mxGeometry y="104" width="160" height="26" as="geometry" />
        </mxCell>
        <mxCell id="yMq1paF7hZHdSIkhjtPt-30" value="Editar" style="text;align=left;verticalAlign=top;spacingLeft=4;spacingRight=4;overflow=hidden;rotatable=0;points=[[0,0.5],[1,0.5]];portConstraint=eastwest;fillColor=#dae8fc;strokeColor=#6c8ebf;" vertex="1" parent="yMq1paF7hZHdSIkhjtPt-24">
          <mxGeometry y="130" width="160" height="26" as="geometry" />
        </mxCell>
      </root>
    </mxGraphModel>
  </diagram>
</mxfile>
